<svg xmlns="http://www.w3.org/2000/svg" width="33.801" height="27.001" viewBox="0 0 33.801 27.001"><g id="local_library_FILL0_wght400_GRAD0_opsz48" transform="translate(0.245 0.287)"><g id="BOCETO" transform="translate(-0.25 -0.25)"><g id="Grupo_1340" data-name="Grupo 1340" transform="translate(0.25 0.25)"><g id="Grupo_1338" data-name="Grupo 1338" transform="translate(0 0.002)"><path id="Trazado_3763" data-name="Trazado 3763" d="M132.5,7.77V26.641a22.271,22.271,0,0,0-8.335,1.628q-1.134.456-2.218,1.018c-.721.376-1.429.785-2.119,1.234a27.619,27.619,0,0,1,6.206-5.076,14.216,14.216,0,0,1,4.02-1.645l-.04-15.858A18.208,18.208,0,0,1,132.5,7.77Z" transform="translate(-99.191 -6.474)" fill="#006"></path><path id="Trazado_3764" data-name="Trazado 3764" d="M113.034.262l.041,16.388c-2.558.9-6.95,3.35-11.966,9.979h0V8.786a30.692,30.692,0,0,1,7.321-6.579,14.535,14.535,0,0,1,4.6-1.947Zm-1.764,15.052V3.054c-1.747.535-4.864,2.044-8.536,6.308h0V22.031A32.372,32.372,0,0,1,107.47,17.6a20.329,20.329,0,0,1,3.8-2.29Z" transform="translate(-83.702 -0.26)" fill="#006"></path><path id="Trazado_3765" data-name="Trazado 3765" d="M35.028,8.794V26.637h0c-5.016-6.631-9.41-9.078-11.968-9.979h0L23.1.27a14.519,14.519,0,0,1,4.6,1.947A30.621,30.621,0,0,1,35.028,8.8ZM33.4,22.041V9.374h0c-3.673-4.268-6.79-5.777-8.536-6.312V15.322a20.235,20.235,0,0,1,3.8,2.29A32.372,32.372,0,0,1,33.4,22.041Z" transform="translate(-19.123 -0.268)" fill="#006"></path><path id="Trazado_3766" data-name="Trazado 3766" d="M12.922,30.52q-1.036-.673-2.119-1.234T8.585,28.267A22.271,22.271,0,0,0,.25,26.64V7.77a18.17,18.17,0,0,1,2.485.173L2.7,23.8a14.221,14.221,0,0,1,4.021,1.645,27.616,27.616,0,0,1,6.2,5.076Z" transform="translate(-0.25 -6.474)" fill="#006"></path></g><g id="Grupo_1339" data-name="Grupo 1339" transform="translate(0)"><path id="Trazado_3767" data-name="Trazado 3767" d="M130.016,7.943l.04,15.858a14.235,14.235,0,0,0-4.02,1.645,27.618,27.618,0,0,0-6.206,5.076q1.036-.673,2.119-1.234t2.218-1.018a22.278,22.278,0,0,1,8.335-1.628V7.77A18.17,18.17,0,0,0,130.016,7.943Z" transform="translate(-99.191 -6.472)" fill="none" stroke="#006" stroke-linecap="round" stroke-linejoin="round" stroke-width="0.49"></path><path id="Trazado_3768" data-name="Trazado 3768" d="M113.086,95.22h0c-2.558.9-6.95,3.35-11.966,9.979" transform="translate(-83.71 -78.829)" fill="none" stroke="#006" stroke-linecap="round" stroke-linejoin="round" stroke-width="0.49"></path><line id="L&#xED;nea_128" data-name="L&#xED;nea 128" x2="0.041" y2="16.388" transform="translate(29.332 0.003)" fill="none" stroke="#006" stroke-linecap="round" stroke-linejoin="round" stroke-width="0.49"></line><path id="Trazado_3769" data-name="Trazado 3769" d="M170.2.253h0l0,0Z" transform="translate(-140.868 -0.25)" fill="none" stroke="#006" stroke-linecap="round" stroke-linejoin="round" stroke-width="0.49"></path><path id="Trazado_3770" data-name="Trazado 3770" d="M101.1,26.629V8.786a30.692,30.692,0,0,1,7.321-6.579,14.535,14.535,0,0,1,4.6-1.947" transform="translate(-83.694 -0.258)" fill="none" stroke="#006" stroke-linecap="round" stroke-linejoin="round" stroke-width="0.49"></path><path id="Trazado_3771" data-name="Trazado 3771" d="M110.52,35.437V22.77h0c3.673-4.267,6.79-5.777,8.536-6.31V28.719a20.235,20.235,0,0,0-3.8,2.29,32.371,32.371,0,0,0-4.736,4.429Z" transform="translate(-91.488 -13.662)" fill="none" stroke="#006" stroke-linecap="round" stroke-linejoin="round" stroke-width="0.49"></path><path id="Trazado_3772" data-name="Trazado 3772" d="M2.735,7.943,2.7,23.8a14.221,14.221,0,0,1,4.021,1.645,27.616,27.616,0,0,1,6.2,5.076q-1.036-.673-2.119-1.234T8.585,28.269A22.271,22.271,0,0,0,.25,26.641V7.77A18.17,18.17,0,0,1,2.735,7.943Z" transform="translate(-0.25 -6.472)" fill="none" stroke="#006" stroke-linecap="round" stroke-linejoin="round" stroke-width="0.49"></path><path id="Trazado_3773" data-name="Trazado 3773" d="M23.093.27l-.04,16.388h0c2.558.9,6.95,3.348,11.968,9.979" transform="translate(-19.115 -0.267)" fill="none" stroke="#006" stroke-linecap="round" stroke-linejoin="round" stroke-width="0.49"></path><path id="Trazado_3774" data-name="Trazado 3774" d="M23.292.253h0l0,0Z" transform="translate(-19.313 -0.25)" fill="none" stroke="#006" stroke-linecap="round" stroke-linejoin="round" stroke-width="0.49"></path><path id="Trazado_3775" data-name="Trazado 3775" d="M35.226,26.637V8.794A30.659,30.659,0,0,0,27.9,2.215,14.546,14.546,0,0,0,23.3.27" transform="translate(-19.322 -0.267)" fill="none" stroke="#006" stroke-linecap="round" stroke-linejoin="round" stroke-width="0.49"></path><path id="Trazado_3776" data-name="Trazado 3776" d="M42.056,35.428V22.762h0c-3.673-4.268-6.79-5.777-8.536-6.312V28.709a20.235,20.235,0,0,1,3.8,2.29A32.372,32.372,0,0,1,42.056,35.428Z" transform="translate(-27.778 -13.654)" fill="none" stroke="#006" stroke-linecap="round" stroke-linejoin="round" stroke-width="0.49"></path></g></g></g></g></svg>