<svg xmlns="http://www.w3.org/2000/svg" width="31.047" height="25.038" viewBox="0 0 31.047 25.038"><g id="mail_FILL0_wght400_GRAD0_opsz48" transform="translate(0.5 0.5)"><g id="BOCETO" transform="translate(-0.5 -0.5)"><path id="Trazado_3534" data-name="Trazado 3534" d="M2.754,24.538a2.162,2.162,0,0,1-1.577-.676A2.162,2.162,0,0,1,.5,22.284V2.754a2.162,2.162,0,0,1,.676-1.577A2.162,2.162,0,0,1,2.754.5h25.54a2.162,2.162,0,0,1,1.577.676,2.162,2.162,0,0,1,.676,1.577v19.53a2.311,2.311,0,0,1-2.254,2.254Zm12.77-11.311L2.714,5.156V22.325h25.62V5.156l-12.809,8.07Zm-.07-2.315L28.085,2.872H2.858l12.595,8.039ZM2.714,4.885v0Z" fill="#006" stroke="#006" stroke-width="1"></path></g></g></svg>