<svg xmlns="http://www.w3.org/2000/svg" width="31" height="31" viewBox="0 0 31 31"><g id="BOCETO" transform="translate(0 -0.224)"><g id="Grupo_1311" data-name="Grupo 1311" transform="translate(0.5 0.5)"><path id="Trazado_3492" data-name="Trazado 3492" d="M15.612.5A15.112,15.112,0,1,1,.5,15.612,15.112,15.112,0,0,1,15.612.5ZM28.68,17.641a13.412,13.412,0,0,0-.011-4.127H21.523a21.739,21.739,0,0,1-.214,6.06H28.23A13.17,13.17,0,0,0,28.68,17.641Zm-7.389-5.78h7A13.241,13.241,0,0,0,17.531,2.528a22.008,22.008,0,0,1,1.782,3.142A24.9,24.9,0,0,1,21.291,11.861Zm6.3,9.366H20.948a22.822,22.822,0,0,1-1.3,3.674,26.038,26.038,0,0,1-2.127,3.8,13.234,13.234,0,0,0,10.065-7.471ZM19.909,15.8a22.364,22.364,0,0,0-.118-2.283H11.669a21.75,21.75,0,0,0,.214,6.062h.008l7.687,0a21.6,21.6,0,0,0,.332-3.778ZM11.9,11.861h7.66A24.974,24.974,0,0,0,17.485,5.47,21.23,21.23,0,0,0,15.73,2.43,24.434,24.434,0,0,0,11.9,11.861Zm7.317,9.366H12.243a22.907,22.907,0,0,0,1.319,3.715,25.872,25.872,0,0,0,2.168,3.844A25.873,25.873,0,0,0,17.9,24.942a22.907,22.907,0,0,0,1.319-3.715ZM12.179,5.6a21.734,21.734,0,0,1,1.776-3.112A13.234,13.234,0,0,0,2.929,11.861h7.24A24.9,24.9,0,0,1,12.179,5.6Zm1.784,23.129a24.286,24.286,0,0,1-3.451-7.507H3.637a13.235,13.235,0,0,0,10.325,7.507ZM2.993,19.574h7.158A21.6,21.6,0,0,1,9.819,15.8a22.363,22.363,0,0,1,.118-2.283H2.554a13.369,13.369,0,0,0-.165,2.1A13.182,13.182,0,0,0,2.993,19.574Z" transform="translate(-0.5 -0.5)" fill="#006"></path><g id="Grupo_1310" data-name="Grupo 1310" transform="translate(0 0.224)"><circle id="Elipse_899" data-name="Elipse 899" cx="15" cy="15" r="15" transform="translate(0 0)" fill="none" stroke="#006" stroke-linecap="round" stroke-linejoin="round" stroke-width="1"></circle><path id="Trazado_3493" data-name="Trazado 3493" d="M75.1,132.17h6.973a22.906,22.906,0,0,1-1.319,3.715,25.872,25.872,0,0,1-2.168,3.844,25.873,25.873,0,0,1-2.168-3.844A22.907,22.907,0,0,1,75.1,132.17Z" transform="translate(-63.357 -111.667)" fill="none" stroke="#006" stroke-linecap="round" stroke-linejoin="round" stroke-width="1"></path><path id="Trazado_3494" data-name="Trazado 3494" d="M118.7,132.17h-6.638a22.822,22.822,0,0,1-1.3,3.674,26.039,26.039,0,0,1-2.127,3.8A13.234,13.234,0,0,0,118.7,132.17Z" transform="translate(-91.609 -111.667)" fill="none" stroke="#006" stroke-linecap="round" stroke-linejoin="round" stroke-width="1"></path><path id="Trazado_3495" data-name="Trazado 3495" d="M27.3,132.17a24.285,24.285,0,0,0,3.451,7.507A13.235,13.235,0,0,1,20.43,132.17H27.3Z" transform="translate(-17.293 -111.667)" fill="none" stroke="#006" stroke-linecap="round" stroke-linejoin="round" stroke-width="1"></path><path id="Trazado_3496" data-name="Trazado 3496" d="M112.451,22.713h7A13.241,13.241,0,0,0,108.69,13.38a22.009,22.009,0,0,1,1.782,3.142A24.9,24.9,0,0,1,112.451,22.713Z" transform="translate(-91.659 -11.576)" fill="none" stroke="#006" stroke-linecap="round" stroke-linejoin="round" stroke-width="1"></path><path id="Trazado_3497" data-name="Trazado 3497" d="M72.92,22.191h7.66A24.975,24.975,0,0,0,78.505,15.8a21.229,21.229,0,0,0-1.755-3.04A24.434,24.434,0,0,0,72.92,22.191Z" transform="translate(-61.52 -11.054)" fill="none" stroke="#006" stroke-linecap="round" stroke-linejoin="round" stroke-width="1"></path><path id="Trazado_3498" data-name="Trazado 3498" d="M26.955,13.16A13.234,13.234,0,0,0,15.93,22.528h7.24a24.9,24.9,0,0,1,2.01-6.256,21.735,21.735,0,0,1,1.776-3.112Z" transform="translate(-13.501 -11.391)" fill="none" stroke="#006" stroke-linecap="round" stroke-linejoin="round" stroke-width="1"></path><path id="Trazado_3499" data-name="Trazado 3499" d="M20.048,83.17H12.665a13.369,13.369,0,0,0-.165,2.1,13.182,13.182,0,0,0,.6,3.962h7.158a21.6,21.6,0,0,1-.332-3.778A22.363,22.363,0,0,1,20.048,83.17Z" transform="translate(-10.611 -70.38)" fill="none" stroke="#006" stroke-linecap="round" stroke-linejoin="round" stroke-width="1"></path><path id="Trazado_3500" data-name="Trazado 3500" d="M71.038,89.23h7.687a21.6,21.6,0,0,0,.332-3.778,22.363,22.363,0,0,0-.118-2.283H70.816a21.75,21.75,0,0,0,.214,6.062h.008Z" transform="translate(-59.647 -70.38)" fill="none" stroke="#006" stroke-linecap="round" stroke-linejoin="round" stroke-width="1"></path><path id="Trazado_3501" data-name="Trazado 3501" d="M132.9,83.17a21.739,21.739,0,0,1-.214,6.06h6.922a13.17,13.17,0,0,0,.45-1.933,13.412,13.412,0,0,0-.011-4.127Z" transform="translate(-111.881 -70.38)" fill="none" stroke="#006" stroke-linecap="round" stroke-linejoin="round" stroke-width="1"></path></g></g></g></svg>