<svg xmlns="http://www.w3.org/2000/svg" width="33.514" height="27.883" viewBox="0 0 33.514 27.883"><g id="BOCETO" transform="translate(0.005 0.003)"><g id="Grupo_1333" data-name="Grupo 1333" transform="translate(0.44 0.44)"><g id="Grupo_1331" data-name="Grupo 1331" transform="translate(0 0)"><path id="Trazado_3535" data-name="Trazado 3535" d="M132.83,80.168v6.611H122.211v-8.93A9.378,9.378,0,0,0,120.8,72.9c-.059-.1-.122-.194-.185-.289h0a9.089,9.089,0,0,1,1.986-.565,9.341,9.341,0,0,1,1.506-.122,8.5,8.5,0,0,1,8.728,8.246Z" transform="translate(-100.208 -59.784)" fill="#006"></path><path id="Trazado_3536" data-name="Trazado 3536" d="M119.832,10.61a4.314,4.314,0,1,1-4.312,4.314A4.314,4.314,0,0,1,119.832,10.61Zm2.9,4.244a2.9,2.9,0,1,0-2.9,2.9A2.9,2.9,0,0,0,122.732,14.854Z" transform="translate(-95.982 -8.883)" fill="#006"></path><path id="Trazado_3537" data-name="Trazado 3537" d="M20.816,65.471v8.81H.44v-8.81A8.532,8.532,0,0,1,8.971,56.94h3.312a8.532,8.532,0,0,1,8.533,8.531Zm-1.754,7V66a7.456,7.456,0,0,0-7.457-7.455h-2A7.455,7.455,0,0,0,2.148,66v6.468H19.063Z" transform="translate(-0.44 -47.348)" fill="#006"></path><path id="Trazado_3538" data-name="Trazado 3538" d="M37.344.44A4.314,4.314,0,1,1,33.03,4.754,4.315,4.315,0,0,1,37.344.44Zm2.9,4.243a2.9,2.9,0,1,0-2.9,2.9,2.9,2.9,0,0,0,2.9-2.9Z" transform="translate(-27.497 -0.44)" fill="#006"></path></g><g id="Grupo_1332" data-name="Grupo 1332" transform="translate(0 0.002)"><path id="Trazado_3539" data-name="Trazado 3539" d="M124.146,14.924a4.313,4.313,0,1,1-4.314-4.314A4.314,4.314,0,0,1,124.146,14.924Z" transform="translate(-95.982 -8.885)" fill="none" stroke="#006" stroke-linecap="round" stroke-linejoin="round" stroke-width="0.89"></path><path id="Trazado_3540" data-name="Trazado 3540" d="M129.648,21.43a2.9,2.9,0,1,1-2.9-2.9A2.9,2.9,0,0,1,129.648,21.43Z" transform="translate(-102.898 -15.46)" fill="none" stroke="#006" stroke-linecap="round" stroke-linejoin="round" stroke-width="0.89"></path><path id="Trazado_3541" data-name="Trazado 3541" d="M.44,74.281H20.816v-8.81a8.532,8.532,0,0,0-8.533-8.531H8.971A8.532,8.532,0,0,0,.44,65.471Z" transform="translate(-0.44 -47.349)" fill="none" stroke="#006" stroke-linecap="round" stroke-linejoin="round" stroke-width="0.89"></path><path id="Trazado_3542" data-name="Trazado 3542" d="M122.221,90.141v-8.93a9.378,9.378,0,0,0-1.416-4.952c-.059-.1-.122-.194-.185-.289" transform="translate(-100.216 -63.149)" fill="none" stroke="#006" stroke-linecap="round" stroke-linejoin="round" stroke-width="0.89"></path><path id="Trazado_3543" data-name="Trazado 3543" d="M10.51,80.333H27.425V73.865a7.456,7.456,0,0,0-7.457-7.455h-2a7.455,7.455,0,0,0-7.455,7.455v6.468Z" transform="translate(-8.8 -55.212)" fill="none" stroke="#006" stroke-linecap="round" stroke-linejoin="round" stroke-width="0.89"></path><circle id="Elipse_905" data-name="Elipse 905" cx="4.314" cy="4.314" r="4.314" transform="translate(5.533)" fill="none" stroke="#006" stroke-linecap="round" stroke-linejoin="round" stroke-width="0.89"></circle><path id="Trazado_3544" data-name="Trazado 3544" d="M122.221,86.787H132.84V80.176a8.5,8.5,0,0,0-8.728-8.246,9.372,9.372,0,0,0-1.506.122,9.209,9.209,0,0,0-1.986.564" transform="translate(-100.216 -59.794)" fill="none" stroke="#006" stroke-linecap="round" stroke-linejoin="round" stroke-width="0.89"></path><path id="Trazado_3545" data-name="Trazado 3545" d="M47.16,11.258a2.9,2.9,0,1,1-2.9-2.9,2.9,2.9,0,0,1,2.9,2.9Z" transform="translate(-34.413 -7.017)" fill="none" stroke="#006" stroke-linecap="round" stroke-linejoin="round" stroke-width="0.89"></path></g></g></g></svg>